<?xml version="1.0" encoding="UTF-8"?> <!--?xml version="1.0" encoding="utf-8"?--> <!-- Generator: Adobe Illustrator 26.0.2, SVG Export Plug-In . SVG Version: 6.00 Build 0) --> <svg xmlns="http://www.w3.org/2000/svg" xmlns:xlink="http://www.w3.org/1999/xlink" version="1.1" id="Layer_1" x="0px" y="0px" viewBox="0 0 1240 153.2" style="" xml:space="preserve"> <style type="text/css"> .st0{fill:none;stroke:#000000;stroke-width:30;stroke-miterlimit:10;} .st1{fill:none;stroke:#000000;stroke-width:28;stroke-miterlimit:10;} .st2{fill:#FFFFFF;} </style> <path class="st0 ZYrHXXJT_0" d="M1105.3,52.5l-1,97.2c0,0,0-85.2,31.2-85.7c29.9-0.5,21.4,85.7,21.4,85.7s-7.2-81.7,32.3-85 c24.9-2.1,16.1,85,16.1,85"></path> <path class="st1 ZYrHXXJT_1" d="M1046.8,93.1c-5.1-17.3-11.3-29.3-27.9-28.1c-19.9,1.5-33.7,20.6-32.9,39c0.9,21,20.5,37.9,33.8,36 c46.4-6.6,36.9-82.1,36.9-82.1l-0.8,91.7"></path> <path class="st1 ZYrHXXJT_2" d="M889.3,98.5l58.5,0.2c-0.3-12.3-12.3-35.7-35.1-36c-20-0.2-32.6,18.6-32.5,35.8c0.1,21.1,13.4,41.4,33.7,41.4 c18.8,0,33-20.9,33.9-22.4"></path> <path class="st1 ZYrHXXJT_3" d="M780,15.4c39.6,0.5,81.6,0.9,81.6,0.7c0-0.2-37.6,1.4-37.6,1.4l1.7,131.3"></path> <path class="st1 ZYrHXXJT_4" d="M714.7,79.2c-4.2-8-20-14.7-27.2-14.9c-7.5-0.2-14.3,11.4-13.9,17.5c1,15.5,38.9,23.7,38.3,40.6 c-0.4,11-5.5,14-16.6,17.7c-8.6,2.9-25.2-6-31.9-16.9"></path> <path class="st1 ZYrHXXJT_5" d="M607.8,56.5l-0.9,92.2l1.4-61.2c13-21.7,34.4-23.7,44.5-18"></path> <path class="st1 ZYrHXXJT_6" d="M547.8,65.3c-4.5-1.4-12.1-3.1-20.9-1.6c-16.3,2.7-39.3,16.4-38.7,39c0.5,18.1,16,35.6,35.9,36.3 c21.6,0.8,38.2-15,38.7-34.3c0.5-21.7-19.4-45.2-44.6-44.2"></path> <path class="st1 ZYrHXXJT_7" d="M415.4,66.5l51,1.5c6.4-8.2-28.6-42.7-28.6-42.7l1,124.4"></path> <path class="st1 ZYrHXXJT_8" d="M381.6,89.7c-5.1-17.3-11.4-25.9-27.9-24.7c-19.9,1.5-33.7,20.6-32.9,39c0.9,21,20.5,37.9,33.8,36 c46.4-6.6,36.9-82.1,36.9-82.1l-0.8,91.7"></path> <path class="st1 ZYrHXXJT_9" d="M226.9,98.9l55.6,0.1c-0.3-12.3-10.2-35.7-33-36c-20-0.2-32.6,18.6-32.5,35.8c0.1,21.1,13.4,41.4,33.7,41.4 c18.8,0,33-20.9,33.9-22.4"></path> <path class="st1 ZYrHXXJT_10" d="M156.9,56.3l-0.9,92.2l1.4-61.2c13-21.7,34.4-23.7,44.5-18"></path> <path class="st1 ZYrHXXJT_11" d="M128.8,29.6C77.3-11.6,21,32.1,21,74.4c0,48.3,55.6,90.6,107.8,48.3"></path> <g> <path class="st2 ZYrHXXJT_12" d="M1020.6,74.1c-15.3,0-25.3,13-25.3,29.2c0,15.8,9.9,28.9,25.3,28.9c13.4,0,25.7-9.7,25.7-28.7 C1046.3,83.6,1034,74.1,1020.6,74.1z"></path> <path class="st2 ZYrHXXJT_13" d="M928.3,78.5c-2.8-2.6-7.3-5.2-14.2-5.2c-7.3,0-12.1,3-14.9,5.8c-3,2.8-5.4,7.1-6.5,11.7h42.1 C933.9,85.8,931.6,81.5,928.3,78.5z"></path> <path class="st2 ZYrHXXJT_14" d="M263.7,78.5c-2.8-2.6-7.3-5.2-14.2-5.2c-7.3,0-12.1,3-14.9,5.8c-3,2.8-5.4,7.1-6.5,11.7h42.1 C269.3,85.8,267,81.5,263.7,78.5z"></path> <path class="st2 ZYrHXXJT_15" d="M524.4,74.1c-13.4,0-27,8.4-27,29.2c0,17.5,10.4,28.9,27,28.9s27-11.4,27-28.9 C551.4,82.5,537.8,74.1,524.4,74.1z"></path> <path class="st2 ZYrHXXJT_16" d="M0,0v153.2h1240V0H0z M121.4,38.1c-16-14.5-30.9-16-39.1-16C51,22.1,29.8,45.2,29.8,77c0,30.5,22,54,52.7,54 c17.3,0,30.7-8.9,38.9-16.6v26.1c-14.5,8.6-29.6,10.8-39.5,10.8c-26.1,0-42.6-11.9-51-19.9C14.1,115.6,7.8,97.3,7.8,77 c0-26.6,11-44.9,23.1-56.4C45.8,6.6,63.1,1.8,83,1.8c13.2,0,25.9,2.4,38.4,10.4V38.1z M195.7,78.7c-4.8-3-8.6-3.2-10.8-3.2 c-4.5,0-9.1,0.6-13.2,5c-5.8,6.3-5.8,14.9-5.8,21v47.1h-21.2V57.5h21.2v8.2c2.4-2.8,5.8-5.8,8.9-7.6c4.1-2.4,8.2-3,13-3 c5.2,0,10.8,0.9,16.6,4.3L195.7,78.7z M291.9,108h-0.1h-65.2c0.4,6.5,3.2,13.8,7.8,18.4c5,5,11,5.8,16.2,5.8 c5.8,0,10.2-1.3,14.5-4.5c3.7-2.8,6.5-6.5,8.4-9.9l17.7,9.9c-3.9,6.9-9.5,13-15.3,16.6c-7.3,4.8-17.1,6.9-26.8,6.9 c-12.1,0-22-3-30.7-11.7S205,118.3,205,104.7c0-14,5-27.6,14.5-37.4C227.1,59.7,237,55,250,55c14.5,0,23.8,6.3,29.2,11.9 c11.7,12.1,12.7,28.9,12.7,38.4V108z M401.5,148.4h-21.2v-9.5c-9.3,10.8-20.7,12.3-27.2,12.3c-28.1,0-44.1-23.3-44.1-48.4 c0-29.6,20.3-47.7,44.3-47.7c6.7,0,18.4,1.7,27,13V57.5h21.2V148.4z M466.3,76.9h-16.2v71.5h-21.2V76.9H420V57.5h8.9V24.2h21.2 v33.3h16.2V76.9z M524.4,151.2c-27.4,0-48.6-20.3-48.6-48.2c0-28.1,21.2-48,48.6-48c27.4,0,48.6,19.9,48.6,48 C573,130.9,551.8,151.2,524.4,151.2z M646,78.7c-4.8-3-8.6-3.2-10.8-3.2c-4.5,0-9.1,0.6-13.2,5c-5.8,6.3-5.8,14.9-5.8,21v47.1H595 V57.5h21.2v8.2c2.4-2.8,5.8-5.8,8.9-7.6c4.1-2.4,8.2-3,13-3c5.2,0,10.8,0.9,16.6,4.3L646,78.7z M713.2,141.1 c-7.1,7.8-16,10.2-25.5,10.2c-5.8,0-13.2-0.9-19.7-5.8c-5.2-3.9-9.5-10.2-11.7-16.6l17.3-8.2c1.1,3,3,6.9,5,8.6 c1.3,1.3,4.3,3.5,9.3,3.5c3.2,0,6.7-1.1,8.6-3c1.7-1.7,3-4.5,3-7.1c0-2.6-0.9-4.8-2.8-6.9c-2.6-2.6-5.6-4.1-9.1-5.6l-7.8-3.7 c-4.1-1.9-9.1-4.3-12.5-7.8c-4.8-4.5-6.5-9.5-6.5-15.3c0-7.3,2.8-14.5,7.6-19.4c4.1-4.3,11-8.6,22.2-8.6c6.5,0,11.7,1.3,16.8,4.8 c3,1.9,7.1,5.4,10.4,11.2l-15.6,10.1c-2.2-3.5-6.3-7.8-13-7.8c-3,0-5.2,1.1-6.5,2.4c-1.1,1.1-1.9,2.8-1.9,4.8c0,2.4,1.1,3.9,3,5.2 c1.3,0.9,2.6,1.3,7.1,3.7l10.8,5.4c4.8,2.4,9.3,4.8,12.7,8.4c5,5,6.7,10.6,6.7,16.8C721.2,128.6,718.2,135.7,713.2,141.1z M867.5,25.1L867.5,25.1h-33.1v123.3h-22V25.1h-33V4.4h88.1V25.1z M956.5,108L956.5,108h-65.3c0.4,6.5,3.2,13.8,7.8,18.4 c5,5,11,5.8,16.2,5.8c5.8,0,10.2-1.3,14.5-4.5c3.7-2.8,6.5-6.5,8.4-9.9l17.7,9.9c-3.9,6.9-9.5,13-15.3,16.6 c-7.3,4.8-17.1,6.9-26.8,6.9c-12.1,0-22-3-30.7-11.7c-8.6-8.6-13.4-21.2-13.4-34.8c0-14,5-27.6,14.5-37.4 c7.6-7.6,17.5-12.3,30.5-12.3c14.5,0,23.8,6.3,29.2,11.9c11.7,12.1,12.7,28.9,12.7,38.4V108z M1066.1,148.4L1066.1,148.4h-21.2 v-9.5c-9.3,10.8-20.7,12.3-27.2,12.3c-28.1,0-44.1-23.3-44.1-48.4c0-29.6,20.3-47.7,44.3-47.7c6.7,0,18.4,1.7,27,13V57.5h21.2 V148.4z M1217.9,148.4h-0.1h-21.2V98.3c0-10.2-1.1-14.3-1.9-16.2c-1.3-3.5-4.5-8-12.1-8c-5.2,0-9.7,2.8-12.5,6.7 c-3.7,5.2-4.1,13-4.1,20.7v46.9h-21.2V98.3c0-10.2-1.1-14.3-1.9-16.2c-1.3-3.5-4.5-8-12.1-8c-5.2,0-9.7,2.8-12.5,6.7 c-3.7,5.2-4.1,13-4.1,20.7v46.9H1093V57.5h21.2v8.4c7.1-8.6,15.6-10.8,22.5-10.8c9.5,0,18.4,4.5,23.5,13.4 c7.6-10.8,19-13.4,27-13.4c11,0,20.7,5.2,25.9,14.3c1.7,3,4.8,9.7,4.8,22.9V148.4z"></path> <path class="st2 ZYrHXXJT_17" d="M355.9,74.1c-15.3,0-25.3,13-25.3,29.2c0,15.8,9.9,28.9,25.3,28.9c13.4,0,25.7-9.7,25.7-28.7 C381.6,83.6,369.3,74.1,355.9,74.1z"></path> </g> <style data-made-with="vivus-instant">.ZYrHXXJT_0{stroke-dasharray:483 485;stroke-dashoffset:484;animation:ZYrHXXJT_draw_0 7900ms linear 0ms infinite,ZYrHXXJT_fade 7900ms linear 0ms infinite;}.ZYrHXXJT_1{stroke-dasharray:346 348;stroke-dashoffset:347;animation:ZYrHXXJT_draw_1 7900ms linear 0ms infinite,ZYrHXXJT_fade 7900ms linear 0ms infinite;}.ZYrHXXJT_2{stroke-dasharray:269 271;stroke-dashoffset:270;animation:ZYrHXXJT_draw_2 7900ms linear 0ms infinite,ZYrHXXJT_fade 7900ms linear 0ms infinite;}.ZYrHXXJT_3{stroke-dasharray:251 253;stroke-dashoffset:252;animation:ZYrHXXJT_draw_3 7900ms linear 0ms infinite,ZYrHXXJT_fade 7900ms linear 0ms infinite;}.ZYrHXXJT_4{stroke-dasharray:179 181;stroke-dashoffset:180;animation:ZYrHXXJT_draw_4 7900ms linear 0ms infinite,ZYrHXXJT_fade 7900ms linear 0ms infinite;}.ZYrHXXJT_5{stroke-dasharray:207 209;stroke-dashoffset:208;animation:ZYrHXXJT_draw_5 7900ms linear 0ms infinite,ZYrHXXJT_fade 7900ms linear 0ms infinite;}.ZYrHXXJT_6{stroke-dasharray:265 267;stroke-dashoffset:266;animation:ZYrHXXJT_draw_6 7900ms linear 0ms infinite,ZYrHXXJT_fade 7900ms linear 0ms infinite;}.ZYrHXXJT_7{stroke-dasharray:229 231;stroke-dashoffset:230;animation:ZYrHXXJT_draw_7 7900ms linear 0ms infinite,ZYrHXXJT_fade 7900ms linear 0ms infinite;}.ZYrHXXJT_8{stroke-dasharray:344 346;stroke-dashoffset:345;animation:ZYrHXXJT_draw_8 7900ms linear 0ms infinite,ZYrHXXJT_fade 7900ms linear 0ms infinite;}.ZYrHXXJT_9{stroke-dasharray:265 267;stroke-dashoffset:266;animation:ZYrHXXJT_draw_9 7900ms linear 0ms infinite,ZYrHXXJT_fade 7900ms linear 0ms infinite;}.ZYrHXXJT_10{stroke-dasharray:207 209;stroke-dashoffset:208;animation:ZYrHXXJT_draw_10 7900ms linear 0ms infinite,ZYrHXXJT_fade 7900ms linear 0ms infinite;}.ZYrHXXJT_11{stroke-dasharray:296 298;stroke-dashoffset:297;animation:ZYrHXXJT_draw_11 7900ms linear 0ms infinite,ZYrHXXJT_fade 7900ms linear 0ms infinite;}.ZYrHXXJT_12{stroke-dasharray:174 176;stroke-dashoffset:175;animation:ZYrHXXJT_draw_12 7900ms linear 0ms infinite,ZYrHXXJT_fade 7900ms linear 0ms infinite;}.ZYrHXXJT_13{stroke-dasharray:102 104;stroke-dashoffset:103;animation:ZYrHXXJT_draw_13 7900ms linear 0ms infinite,ZYrHXXJT_fade 7900ms linear 0ms infinite;}.ZYrHXXJT_14{stroke-dasharray:102 104;stroke-dashoffset:103;animation:ZYrHXXJT_draw_14 7900ms linear 0ms infinite,ZYrHXXJT_fade 7900ms linear 0ms infinite;}.ZYrHXXJT_15{stroke-dasharray:180 182;stroke-dashoffset:181;animation:ZYrHXXJT_draw_15 7900ms linear 0ms infinite,ZYrHXXJT_fade 7900ms linear 0ms infinite;}.ZYrHXXJT_16{stroke-dasharray:7808 7810;stroke-dashoffset:7809;animation:ZYrHXXJT_draw_16 7900ms linear 0ms infinite,ZYrHXXJT_fade 7900ms linear 0ms infinite;}.ZYrHXXJT_17{stroke-dasharray:174 176;stroke-dashoffset:175;animation:ZYrHXXJT_draw_17 7900ms linear 0ms infinite,ZYrHXXJT_fade 7900ms linear 0ms infinite;}@keyframes ZYrHXXJT_draw{100%{stroke-dashoffset:0;}}@keyframes ZYrHXXJT_fade{0%{stroke-opacity:1;}94.9367088607595%{stroke-opacity:1;}100%{stroke-opacity:0;}}@keyframes ZYrHXXJT_draw_0{6.329113924050633%{stroke-dashoffset: 484}18.9873417721519%{ stroke-dashoffset: 0;}100%{ stroke-dashoffset: 0;}}@keyframes ZYrHXXJT_draw_1{6.329113924050633%{stroke-dashoffset: 347}18.9873417721519%{ stroke-dashoffset: 0;}100%{ stroke-dashoffset: 0;}}@keyframes ZYrHXXJT_draw_2{6.329113924050633%{stroke-dashoffset: 270}18.9873417721519%{ stroke-dashoffset: 0;}100%{ stroke-dashoffset: 0;}}@keyframes ZYrHXXJT_draw_3{6.329113924050633%{stroke-dashoffset: 252}18.9873417721519%{ stroke-dashoffset: 0;}100%{ stroke-dashoffset: 0;}}@keyframes ZYrHXXJT_draw_4{6.329113924050633%{stroke-dashoffset: 180}18.9873417721519%{ stroke-dashoffset: 0;}100%{ stroke-dashoffset: 0;}}@keyframes ZYrHXXJT_draw_5{6.329113924050633%{stroke-dashoffset: 208}18.9873417721519%{ stroke-dashoffset: 0;}100%{ stroke-dashoffset: 0;}}@keyframes ZYrHXXJT_draw_6{6.329113924050633%{stroke-dashoffset: 266}18.9873417721519%{ stroke-dashoffset: 0;}100%{ stroke-dashoffset: 0;}}@keyframes ZYrHXXJT_draw_7{6.329113924050633%{stroke-dashoffset: 230}18.9873417721519%{ stroke-dashoffset: 0;}100%{ stroke-dashoffset: 0;}}@keyframes ZYrHXXJT_draw_8{6.329113924050633%{stroke-dashoffset: 345}18.9873417721519%{ stroke-dashoffset: 0;}100%{ stroke-dashoffset: 0;}}@keyframes ZYrHXXJT_draw_9{6.329113924050633%{stroke-dashoffset: 266}18.9873417721519%{ stroke-dashoffset: 0;}100%{ stroke-dashoffset: 0;}}@keyframes ZYrHXXJT_draw_10{6.329113924050633%{stroke-dashoffset: 208}18.9873417721519%{ stroke-dashoffset: 0;}100%{ stroke-dashoffset: 0;}}@keyframes ZYrHXXJT_draw_11{6.329113924050633%{stroke-dashoffset: 297}18.9873417721519%{ stroke-dashoffset: 0;}100%{ stroke-dashoffset: 0;}}@keyframes ZYrHXXJT_draw_12{6.329113924050633%{stroke-dashoffset: 175}18.9873417721519%{ stroke-dashoffset: 0;}100%{ stroke-dashoffset: 0;}}@keyframes ZYrHXXJT_draw_13{6.329113924050633%{stroke-dashoffset: 103}18.9873417721519%{ stroke-dashoffset: 0;}100%{ stroke-dashoffset: 0;}}@keyframes ZYrHXXJT_draw_14{6.329113924050633%{stroke-dashoffset: 103}18.9873417721519%{ stroke-dashoffset: 0;}100%{ stroke-dashoffset: 0;}}@keyframes ZYrHXXJT_draw_15{6.329113924050633%{stroke-dashoffset: 181}18.9873417721519%{ stroke-dashoffset: 0;}100%{ stroke-dashoffset: 0;}}@keyframes ZYrHXXJT_draw_16{6.329113924050633%{stroke-dashoffset: 7809}18.9873417721519%{ stroke-dashoffset: 0;}100%{ stroke-dashoffset: 0;}}@keyframes ZYrHXXJT_draw_17{6.329113924050633%{stroke-dashoffset: 175}18.9873417721519%{ stroke-dashoffset: 0;}100%{ stroke-dashoffset: 0;}}</style></svg> 